<svg width="483" height="512" viewBox="0 0 483 512" fill="none" xmlns="http://www.w3.org/2000/svg">
<path d="M271.09 48.5801C326.89 100.33 228.4 266.37 269.46 292.03C284.72 301.56 301.17 279.64 376.03 264.47C407.65 258.07 465.67 246.32 472.86 262.12C480.52 278.97 428.23 322.36 428.17 322.3C428.11 322.24 428.94 321.09 431.04 318.68C402.067 347.427 365.802 367.729 326.15 377.4C288.5 386.433 249.137 385.423 212 374.47C174.23 338.21 155.39 303.85 145.3 280.53C121.6 225.81 246.73 26.0001 271.09 48.5801Z" fill="url(#paint0_linear)"/>
<path d="M297.05 91.84C339.9 154.36 218.12 272.47 251.89 307.45C264.44 320.45 283.73 305.87 356.39 314.66C387.09 318.37 443.39 325.18 447.28 341.34C451.42 358.58 394.79 381.55 394.74 381.48C394.69 381.41 395.68 380.64 398.07 379.12C382.22 387.45 343.73 404.69 289.54 400.12C238.54 395.77 200.28 374.31 183.4 363.58C154.61 320.18 143.16 284.07 137.92 260.38C125.62 204.73 278.34 64.54 297.05 91.84Z" fill="url(#paint1_linear)"/>
<path d="M250.72 478.55L253.23 479.9L281.62 495.09L292.36 477.28L255.3 456.81L250.72 478.55Z" fill="#F3B59E"/>
<path d="M284.31 472.83C278.26 487.13 274.9 490.83 272.93 490.44C272.567 490.33 272.228 490.154 271.93 489.92C271.93 489.98 289.55 499.75 289.55 499.75C291.596 500.412 293.794 500.442 295.857 499.838C297.921 499.233 299.755 498.021 301.12 496.36C304.39 492.11 302.53 486.86 302.35 486.36C301.88 485.11 300.94 483.36 296.53 479.96C292.766 477.089 288.661 474.694 284.31 472.83Z" fill="#DFDFDF"/>
<path d="M289.47 499.12C289.291 501.291 289.866 503.456 291.1 505.251C292.334 507.046 294.149 508.36 296.24 508.97C297.922 509.362 299.68 509.276 301.316 508.723C302.952 508.17 304.401 507.172 305.5 505.84C306.22 505.26 311.5 500.84 311.19 494.28C310.71 484.77 298.68 480 297.68 481.01C296.93 481.76 301.98 485.93 300.96 491.2C300.547 493.034 299.588 494.701 298.21 495.98C297.616 496.771 296.884 497.448 296.05 497.98C294.084 499.19 291.728 499.598 289.47 499.12Z" fill="black"/>
<path d="M295.69 439.13L298.38 440.25L328.8 452.95L337.99 433.75L298.22 416.53L295.69 439.13Z" fill="#F3B59E"/>
<path d="M329.35 430C324.59 445.16 321.53 449.28 319.48 449.05C319.102 448.976 318.742 448.83 318.42 448.62C318.42 448.69 337.33 456.91 337.33 456.91C339.479 457.38 341.72 457.195 343.763 456.379C345.806 455.562 347.557 454.152 348.79 452.33C351.7 447.67 349.29 442.5 349.06 442.01C348.46 440.78 347.33 439.07 342.51 436.06C338.389 433.507 333.969 431.472 329.35 430Z" fill="#DFDFDF"/>
<path d="M337.19 456.28C337.223 458.509 338.023 460.658 339.454 462.366C340.886 464.074 342.862 465.238 345.05 465.66C346.802 465.893 348.585 465.632 350.198 464.908C351.811 464.184 353.19 463.025 354.18 461.56C354.86 460.89 359.82 455.82 358.85 449.22C357.43 439.58 344.7 435.9 343.78 437.03C343.09 437.87 348.64 441.62 348.12 447.09C347.88 449.001 347.063 450.794 345.78 452.23C345.259 453.112 344.581 453.891 343.78 454.53C341.885 455.928 339.529 456.554 337.19 456.28Z" fill="black"/>
<path d="M132.29 279.23L210.29 273.11C222.298 300.715 231.881 329.313 238.93 358.58C241.77 370.38 244.08 381.81 245.93 392.79C270.653 406.827 298.324 414.869 326.72 416.27L320.37 431.69L297.71 432.6L312.71 444.84C309.783 448.28 306.88 451.753 304 455.26C289.58 448.887 274.913 442.553 260 436.26C242.453 428.753 225.083 421.56 207.89 414.68C198.988 396.905 194.352 377.3 194.35 357.42L201.91 421.68C227.977 437.97 256.273 450.386 285.91 458.54C283.603 463.873 281.29 469.207 278.97 474.54L252.42 466.9L273.21 480.77C270.97 485.437 268.723 490.103 266.47 494.77L172.47 451.94C148.718 397.286 135.086 338.774 132.24 279.25L132.29 279.23Z" fill="#707A3D"/>
<path d="M135.75 155.21L149.83 206.29L179.04 202.42L180.13 144.82L135.75 155.21Z" fill="#FAAF82"/>
<path d="M114.8 57.12C111.14 56.58 98.5 55.17 87.38 63.12C74.18 72.61 70.74 89.6 72.11 95.28C72.6622 97.7223 72.8475 100.233 72.66 102.73C72.53 104.62 71.9 108 71.25 107.99C70.6 107.98 71.16 103.69 68.54 100.84C66.8 98.94 63.54 97.67 61.25 98.43C55.92 100.18 52.86 113.26 57.87 122.22C60.7 127.29 67.42 133.38 72.61 131.15C76.8 129.36 77.68 123.15 77.81 122.15C84.73 134.139 93.1996 145.164 103 154.94C112.79 164.68 119.92 171.77 132 176.26C137.37 178.26 152.42 183.84 168.15 178.11C184.92 172.01 193.15 156.39 199.44 144.62C209.05 126.62 210.18 104.81 215.95 104.88C217.95 104.88 219.31 107.6 222.95 107.37C226.59 107.14 228.83 104.37 229.43 103.68C232.19 100.49 232.34 96.68 232.43 94.05C232.513 90.2897 231.679 86.5657 230 83.2C228.36 79.53 227.33 77.2 224.89 76.37C221.32 75.16 217.65 78.15 217.46 78.31C214.14 81 214 85.49 213.3 85.4C212.6 85.31 213.03 79.32 212.57 74.77C211.57 64.77 205.28 57.08 201.94 53.93C197.71 49.93 194.48 50.63 161.94 47.05C145.2 45.21 137.72 44.68 128.75 48.25C123.594 50.3238 118.865 53.3307 114.8 57.12Z" fill="#F9A97E"/>
<path d="M128.25 22.4601C106.09 14.3801 92.7899 20.1501 89.0899 21.9901C64.8099 34.0501 52.9999 76.1201 70.8699 122.43C71.1299 119.93 73.1099 102.22 79.1499 101.43C81.3799 101.15 83.5799 103.08 85.9399 106.08C98.2899 121.78 96.4899 126 96.4899 126L105.18 102.78C108.888 103.816 112.176 105.992 114.58 109C119.26 115.26 117.7 123.54 118.83 123.64C119.52 123.7 120.9 120.64 122.24 111.99C125.39 91.6801 122.09 80.9901 127.79 77.6901C128.707 77.2117 129.712 76.9251 130.744 76.8478C131.775 76.7704 132.812 76.9039 133.79 77.2401C140.31 79.4001 141.34 90.8301 141.34 90.8301L145.6 69.7801C145.6 69.7801 181.8 75.1201 181 98.0701C192.26 90.2901 183.29 64.3601 180.83 63.8001C191.38 71.7201 197.48 81.2901 199.59 92.3001C198.97 70.7401 198.65 59.3001 198.65 59.3001C202.447 65.0521 204.954 71.5576 206 78.3701C207.94 91.6501 203.21 102.12 204.94 102.78C206.4 103.33 211.08 96.3201 214.21 88.4701C217.02 81.4701 220.41 69.2001 217.92 51.8201C215.8 42.6912 211.562 34.189 205.55 27.0001C186.15 4.00006 156.55 6.00006 153.17 6.54006C149.167 7.13547 145.334 8.56647 141.92 10.7401C136.598 13.6532 131.942 17.645 128.25 22.4601Z" fill="#FEE67E"/>
<path d="M107.633 138.313C110.425 137.937 112.273 134.549 111.761 130.745C111.25 126.941 108.572 124.161 105.78 124.537C102.989 124.912 101.141 128.3 101.652 132.104C102.164 135.909 104.842 138.688 107.633 138.313Z" fill="black"/>
<path d="M162.583 130.21C165.375 129.835 167.223 126.447 166.711 122.643C166.2 118.839 163.522 116.059 160.73 116.434C157.939 116.81 156.091 120.198 156.602 124.002C157.114 127.806 159.792 130.586 162.583 130.21Z" fill="black"/>
<path d="M123.58 153L157.41 149C157.214 152.802 155.914 156.465 153.67 159.54C152.53 161.08 149.25 165.54 143.35 166.54C137.2 167.54 132.46 164.17 130.81 162.97C127.439 160.462 124.916 156.983 123.58 153Z" fill="#BF4240"/>
<path d="M134.17 110.53C134.963 117.21 135.317 123.934 135.23 130.66C135.1 135.66 134.59 140.66 134.59 140.66C134.583 140.753 134.583 140.847 134.59 140.94L144.68 140.19C143.241 138.772 141.973 137.192 140.9 135.48C139.503 133.202 138.445 130.733 137.76 128.15C136.141 122.371 134.941 116.482 134.17 110.53Z" fill="#EC9574"/>
<path d="M70.4599 230.3C70.4599 230.3 48.8899 216.66 43.0799 209C37.2699 201.34 39.2199 199.78 39.2199 199.78C39.2199 199.78 42.0999 195.67 37.1599 196.65C32.2199 197.63 31.3899 200.37 31.3899 200.37C31.3899 200.37 17.1199 194.89 17.0999 204.37C17.0799 213.85 28.0999 217.5 28.0999 217.5L29.6199 218.36L56.7999 238.81L70.4599 230.3Z" fill="#FAAF82"/>
<path d="M261.09 284.24C261.09 284.24 260.88 317.56 238.41 313.38C215.94 309.2 230.1 301 230.1 301C230.1 301 231.53 288 238.44 296.49C238.84 296.99 239.27 297.56 239.72 298.22C247.72 310.01 249.99 278.61 249.99 278.61L261.09 284.24Z" fill="#FAAF82"/>
<path d="M136.41 194.86C145.509 197.619 155.123 198.235 164.5 196.66C173.799 195.11 182.603 191.393 190.2 185.81C200.064 186.36 209.701 188.988 218.48 193.52C225.22 197.08 230.24 201.28 246.2 218.43C252.68 225.43 261.08 234.63 270.7 245.74C268.173 259.587 265.64 273.44 263.1 287.3C260.321 287.622 257.507 287.446 254.79 286.78C251.661 286.012 248.732 284.583 246.2 282.59C247.693 271.563 249.18 260.527 250.66 249.48L222.77 223.24C216.134 243.233 214.937 264.631 219.3 285.24C222.762 301.16 229.409 316.215 238.84 329.5C232.79 335.6 216.12 350.69 190.19 354.11C187.87 354.42 147.67 359.29 134.43 339.27C127.08 328.16 132.75 318.05 133.53 296.82C134.12 280.82 131.83 258.18 118.59 230.3C113.7 234.65 108.26 239.14 102.23 243.66C94.7741 249.245 87.0193 254.419 79 259.16C69.5726 255.062 60.7021 249.787 52.6 243.46C45.6291 238.04 39.2954 231.847 33.72 225C36.46 218.74 39.45 217.12 40.56 216.65C41.45 216.26 44.77 215.06 48.37 213.95H48.53L78.44 236C87.2484 230.721 95.393 224.406 102.7 217.19C108.8 211.13 113.35 205.29 122.63 200.19C126.983 197.846 131.612 196.055 136.41 194.86Z" fill="#FBE4C3"/>
<path d="M136.41 194.86C141.16 211.15 164.51 289.86 178.41 287.86C192.31 285.86 189.67 202.86 189.05 186.27C194.125 186.22 199.188 186.801 204.12 188C209.122 189.222 213.947 191.077 218.48 193.52C221.273 204.8 224.06 216.077 226.84 227.35C218.88 246.521 216.66 267.591 220.45 288C223.555 304.039 230.237 319.171 240 332.27C233.95 338.37 217.28 353.46 191.35 356.88C188.09 357.31 149.82 361.88 135.59 342.04C127.75 331.11 132.77 320.56 133.4 299.74C133.91 282.96 131.57 259.33 118.6 230.3L119.7 202C124.865 198.774 130.503 196.375 136.41 194.89V194.86Z" fill="#5E4E4E"/>
<defs>
<linearGradient id="paint0_linear" x1="304.104" y1="21.8843" x2="311.088" y2="459.679" gradientUnits="userSpaceOnUse">
<stop stop-color="#BFD855"/>
<stop offset="0.06" stop-color="#C0D95A"/>
<stop offset="0.14" stop-color="#C4DC67"/>
<stop offset="0.21" stop-color="#CBE07E"/>
<stop offset="0.29" stop-color="#D4E69E"/>
<stop offset="0.37" stop-color="#E0EEC6"/>
<stop offset="0.43" stop-color="#EAF5E8"/>
<stop offset="0.48" stop-color="#E5F1E2"/>
<stop offset="0.54" stop-color="#D8E4D2"/>
<stop offset="0.62" stop-color="#C3D0B7"/>
<stop offset="0.69" stop-color="#A5B391"/>
<stop offset="0.78" stop-color="#7F8F62"/>
<stop offset="0.83" stop-color="#62743E"/>
</linearGradient>
<linearGradient id="paint1_linear" x1="237.893" y1="43.1831" x2="284.237" y2="589.785" gradientUnits="userSpaceOnUse">
<stop stop-color="#CBDC53"/>
<stop offset="0.06" stop-color="#CCDD58"/>
<stop offset="0.14" stop-color="#CFDF65"/>
<stop offset="0.21" stop-color="#D4E37C"/>
<stop offset="0.29" stop-color="#DAE89C"/>
<stop offset="0.37" stop-color="#E2EFC4"/>
<stop offset="0.43" stop-color="#EAF5E8"/>
<stop offset="0.48" stop-color="#E6F1E2"/>
<stop offset="0.54" stop-color="#DAE5D2"/>
<stop offset="0.6" stop-color="#C7D2B7"/>
<stop offset="0.68" stop-color="#ACB791"/>
<stop offset="0.76" stop-color="#8A9562"/>
<stop offset="0.81" stop-color="#707A3D"/>
</linearGradient>
</defs>
</svg>
