<svg width="501" height="507" viewBox="0 0 501 507" fill="none" xmlns="http://www.w3.org/2000/svg">
<path d="M0.540356 333.167C0.540356 333.167 1.04036 332.577 1.97036 331.627C6.15035 327.277 19.1404 315.357 33.9704 317.187C33.9704 317.187 33.9704 317.187 34.0204 317.187C45.2504 318.627 57.5104 327.977 67.7704 354.527C67.7704 354.527 68.1404 354.037 68.8304 353.207L69.0904 352.897C69.5404 352.357 70.0904 351.707 70.7704 350.977C74.2575 347.112 78.1995 343.684 82.5104 340.767C91.0004 335.137 102.26 331.367 113.73 338.157C119.25 341.417 124.83 347.157 130.18 356.257C130.41 356.637 130.63 357.017 130.85 357.417C130.939 357.054 131.049 356.696 131.18 356.347C131.32 355.987 131.49 355.547 131.72 355.057C131.95 354.567 132.14 354.167 132.42 353.657C134.82 349.457 140.42 343.207 153.07 343.067C159.92 343.017 168.81 344.747 180.34 349.567L189.34 347.907L189.78 347.827L231.99 339.987L258.63 335.037C258.63 335.037 52.3204 257.937 50.3604 227.157C50.3604 227.157 49.3004 227.727 47.4904 228.917C46.4904 229.567 43.3604 231.987 40.4904 234.257C39.7704 234.837 35.8404 238.027 35.4904 238.407C19.3104 253.217 -3.55964 283.417 0.540356 333.167Z" fill="#AE1F2A"/>
<path d="M93.0003 274.207C76.2145 297.599 67.3748 325.758 67.7803 354.547C65.4919 345.697 61.1087 337.527 55.0003 330.727C50.7603 326.057 44.5603 319.217 35.2903 317.307C16.8803 313.527 1.29033 332.217 0.54033 333.167C-0.252976 324.774 -0.172545 316.322 0.78033 307.947C2.12637 295.635 5.42786 283.618 10.5603 272.347C15.947 260.852 23.2972 250.386 32.2803 241.417C58.5303 254.627 78.0303 265.477 91.7903 273.497L94.0103 274.787L95.0103 275.357C97.0103 276.527 140.41 299.357 146.3 302.447C147.16 302.897 149.12 303.937 151.84 305.337C151.84 305.337 158.25 308.757 165.15 311.977C184.64 321.067 207.31 330.807 232.93 340.297L181 350.487C174.67 346.805 167.652 344.46 160.38 343.597C153.67 342.817 146.64 342.007 139.99 346.197C135.862 348.905 132.673 352.824 130.86 357.417C130.31 352.507 126.72 316.807 145.17 306.317C146.657 305.462 148.242 304.79 149.89 304.317L93.0003 274.207Z" fill="#D32027"/>
<path d="M212.82 388.107C212.82 388.107 199 397.617 202.15 409.817C203.31 414.297 206.76 419.137 214.03 424.007L203.31 414.297C203.31 414.297 161.82 402.207 159.73 437.927C157.64 473.647 218.02 468.927 218.02 468.927C218.02 468.927 235.53 471.057 261.64 439.507C261.64 439.507 261.31 388.757 271.33 387.137C281.35 385.517 212.82 388.107 212.82 388.107Z" fill="#B51F2B"/>
<path d="M202.16 410.167C202.986 414.466 205.075 418.422 208.16 421.527C209.79 423.154 211.646 424.538 213.67 425.637L203.36 414.637C203.36 414.637 179 407.537 166.67 420.297C159.84 427.367 159.8 437.017 159.78 438.297C159.78 440.787 159.95 450.157 166.78 457.117C170 460.387 173.2 461.617 179.02 463.787C188.148 467.16 197.789 468.936 207.52 469.037C215.222 469.107 222.899 468.176 230.36 466.267C224.278 456.604 220.713 445.572 219.99 434.177C218.55 409.577 231.31 392.107 235.04 387.347C227.44 387.707 221.28 387.817 216.82 387.857C215.628 387.78 214.43 387.864 213.26 388.107C206.02 389.997 200.57 400.827 202.16 410.167Z" fill="#D81F26"/>
<path d="M188.38 457.007C188.38 457.007 178.02 459.657 177.69 474.917C177.36 490.177 199.28 475.417 199.28 475.417C199.28 475.417 210.35 470.067 204.13 460.597C197.91 451.127 188.38 457.007 188.38 457.007Z" fill="#31171A"/>
<path d="M170.55 437.247C170.55 437.247 159.86 437.717 156.41 452.587C152.96 467.457 177.41 457.497 177.41 457.497C177.41 457.497 189.34 454.497 185.18 443.987C181.02 433.477 170.55 437.247 170.55 437.247Z" fill="#31171A"/>
<path d="M171.18 413.837C171.18 413.837 161.8 408.677 151.12 419.577C140.44 430.477 166.52 434.717 166.52 434.717C166.52 434.717 178.26 438.397 180.19 427.237C182.12 416.077 171.18 413.837 171.18 413.837Z" fill="#31171A"/>
<path d="M376.69 263.597L265.8 303.227C260.29 304.227 253.07 305.357 244.54 306.097C233.394 307.146 222.18 307.289 211.01 306.527C203.93 305.997 184.75 304.527 166.43 297.177C137.07 285.317 119.67 262.077 111.38 248.737C84.1004 192.737 88.9704 130.737 123.5 92.4169C145.12 68.4169 172.72 59.8969 187.9 56.6369C207.13 47.3528 227.227 39.984 247.9 34.6369C292.19 23.1769 308.44 29.1069 313.77 31.4169C323.21 35.4169 329.01 41.4169 336.17 47.4869C356.53 64.6569 389.82 92.3269 400.78 140.297C411.96 189.227 394.78 228.857 389.85 240.017C385.16 250.617 382.55 256.517 376.69 263.597Z" fill="#B8202D"/>
<path d="M414.67 133.697C414.67 133.697 470.26 151.317 411.36 178.287C411.36 178.287 444.94 194.797 411.36 214.607C411.36 214.607 443.66 222.317 407.7 243.607C394.25 251.607 385.11 256.607 378.94 259.797C384.45 250.517 388.94 243.057 392.44 233.797C392.44 233.797 407.9 195.167 401.44 151.327C390.44 75.9568 315.49 32.2068 309.44 28.8068L289.44 25.8068L276.5 27.7268L266.87 30.7268C271.402 24.4859 277.096 19.1788 283.64 15.0968C287.94 12.4268 295.72 5.53681 315.59 5.99681C344.1 6.66681 357.9 4.46681 371.59 8.69681C379.59 11.1668 401.24 17.4368 401.5 27.1768C401.67 33.5968 392.5 38.7468 391.04 39.5768C381.6 44.8768 369.04 44.0768 364.83 43.5768C377.7 45.3768 471.13 59.5268 414.16 84.6668C414.12 84.7068 487.87 116.087 414.67 133.697Z" fill="#5F0D14"/>
<path d="M243.932 37.882C246.31 18.1147 235.045 0.502906 218.771 -1.45499C202.496 -3.41289 187.375 11.0245 184.997 30.7918C182.619 50.5592 193.884 68.1709 210.159 70.1288C226.433 72.0867 241.554 57.6493 243.932 37.882Z" fill="#FFCB4D"/>
<path d="M225.747 36.178C226.965 29.6129 224.651 23.6784 220.578 22.9228C216.506 22.1673 212.217 26.8768 210.999 33.4419C209.781 40.007 212.095 45.9416 216.168 46.6972C220.24 47.4527 224.529 42.7431 225.747 36.178Z" fill="white"/>
<path d="M225.522 35.8328C226.72 29.3055 225.279 23.5708 222.302 23.024C219.326 22.4773 215.94 27.3255 214.742 33.8528C213.543 40.3802 214.984 46.1149 217.961 46.6616C220.938 47.2084 224.323 42.3602 225.522 35.8328Z" fill="black"/>
<path d="M244.62 35.5669C226.266 26.9718 205.838 23.7973 185.74 26.4169C187.55 9.27689 202.74 -2.88311 218.24 -1.47311C235.07 0.0768869 248.29 17.1769 244.62 35.5669Z" fill="#C9202F"/>
<path d="M282.055 71.9748C298.329 70.0084 309.585 52.3908 307.196 32.6247C304.808 12.8586 289.679 -1.57089 273.406 0.395533C257.132 2.36195 245.876 19.9796 248.265 39.7457C250.653 59.5118 265.782 73.9413 282.055 71.9748Z" fill="#FFCB4D"/>
<path d="M268.639 49.9423C272.711 49.1847 275.022 43.2489 273.801 36.6844C272.579 30.12 268.288 25.4126 264.216 26.1703C260.144 26.928 257.832 32.8638 259.054 39.4282C260.275 45.9927 264.567 50.7 268.639 49.9423Z" fill="white"/>
<path d="M266.181 49.2914C269.168 48.7358 270.601 42.977 269.383 36.4288C268.164 29.8807 264.756 25.0228 261.769 25.5784C258.783 26.134 257.35 31.8928 258.568 38.441C259.786 44.9892 263.195 49.8471 266.181 49.2914Z" fill="black"/>
<path d="M247.56 37.4169C265.915 28.8216 286.345 25.6538 306.44 28.2869C304.62 11.1469 289.44 -1.0031 273.93 0.416904C257.1 1.9569 243.89 19.0569 247.56 37.4169Z" fill="#C9202F"/>
<path d="M346.44 150.857L339.44 134.507C339.44 134.507 381.18 68.8668 393.81 64.4168C406.44 59.9668 410.03 64.5468 410.03 64.5468C410.03 64.5468 407.56 89.1968 383.2 108.117C383.2 108.117 403.7 94.7168 407.76 102.777C411.82 110.837 378.95 130.327 378.95 130.327C378.95 130.327 416.89 122.437 393.21 137.807L346.44 150.857Z" fill="#D32027"/>
<path d="M113.73 95.127C113.04 92.717 109.84 81.537 114.2 78.567C115.12 77.947 116.36 77.697 118.96 78.137C126.69 79.427 132.57 84.407 136.03 88.047C137.556 90.0971 138.879 92.2907 139.98 94.597C142.24 99.347 144.16 103.387 142.98 107.077C141.32 112.347 133.6 115.987 127.46 114.737C118.84 112.977 115.7 102.007 113.73 95.127Z" fill="#31171A"/>
<path d="M192.15 91.2269C200.73 84.8269 211.08 85.9169 215.25 91.2269C218.53 95.4069 217.81 101.987 215.82 106.347C214.378 109.414 212.084 112 209.21 113.797C208.06 114.667 198.08 122.037 187.74 118.177C186.12 117.577 181.42 115.817 179.82 111.717C177.57 105.917 182.12 97.0869 192.15 91.2269Z" fill="#31171A"/>
<path d="M205.55 181.617C208.4 176.317 214.91 166.177 225.32 164.517C225.983 164.414 226.651 164.347 227.32 164.317C228.003 164.289 228.685 164.405 229.32 164.657C236.32 167.477 234.06 186.657 233.92 187.717L205.55 181.617Z" fill="white"/>
<path d="M255.72 192.767C255.9 198.767 257.17 210.767 265.72 216.917C266.263 217.305 266.828 217.662 267.41 217.987C268.01 218.314 268.67 218.515 269.35 218.577C276.88 219.197 283.43 201.057 283.79 200.017L255.72 192.767Z" fill="white"/>
<path d="M93.7603 175.767C110.48 174.977 128.19 174.867 146.76 175.767C201.499 178.322 255.601 188.604 307.46 206.307L306.01 209.887C237.979 185.753 165.762 175.66 93.7203 180.217L93.7603 175.767Z" fill="#D32027"/>
<path d="M212.28 338.627C212.28 338.627 160.88 343.367 159.92 373.347C159.92 373.347 160.43 392.407 185 379.057C200.09 370.802 214.256 360.963 227.26 349.707L212.28 338.627Z" fill="#B71F2E"/>
<path d="M212.28 338.627C212.28 338.627 160.88 343.367 159.92 373.347C161.28 377.697 162.99 382.247 164.29 382.077C166.03 381.847 164.1 373.597 167.84 365.467C172.57 355.207 184.46 349.207 192.92 347.357C196.55 346.567 199.24 346.597 209.59 344.597C213.16 343.907 216.07 343.277 217.99 342.847L212.28 338.627Z" fill="#DF1F29"/>
<path d="M167.357 364.876C168.021 362.225 164.656 359.096 159.84 357.889C155.024 356.682 150.581 357.854 149.916 360.505C149.251 363.157 152.617 366.285 157.433 367.492C162.249 368.699 166.692 367.528 167.357 364.876Z" fill="#482226"/>
<path d="M161.81 379.433C166.462 377.699 169.46 374.216 168.505 371.655C167.55 369.093 163.005 368.422 158.352 370.156C153.7 371.89 150.702 375.372 151.657 377.934C152.612 380.495 157.157 381.166 161.81 379.433Z" fill="#482226"/>
<path d="M171.686 387.598C175.576 384.514 177.353 380.277 175.655 378.134C173.956 375.992 169.426 376.756 165.535 379.841C161.644 382.926 159.867 387.163 161.566 389.305C163.264 391.447 167.795 390.683 171.686 387.598Z" fill="#482226"/>
<path d="M195.44 307.947C186.981 325.334 183.358 344.677 184.95 363.947C185.81 373.717 188.55 405.127 213.33 426.577C234.93 445.267 262.87 447.417 275.03 448.417C281.6 448.927 291.34 449.017 292.03 449.017C309.03 449.157 317.58 449.217 326.4 446.937C336.09 444.427 349.87 438.727 352.4 437.577C355.426 436.235 358.552 435.131 361.75 434.277C366.772 431.221 371.559 427.795 376.07 424.027C399.44 404.527 410.32 380.077 415.53 364.147C418.058 360.37 421.53 357.319 425.6 355.297C440.11 348.297 455.6 358.827 456.42 359.417C456.42 359.417 427.8 290.067 382.66 325.297C382.66 325.297 374.41 299.977 332.58 324.197L298.45 280.197L196.07 282.397C195.89 290.89 195.68 299.407 195.44 307.947Z" fill="#B8202D"/>
<path d="M452.73 351.627C452.73 351.627 468.06 332.737 460.08 324.627C452.1 316.517 473.84 328.867 482.92 380.327C482.92 380.327 444.92 394.327 431.18 389.957C431.18 389.917 464.91 374.147 452.73 351.627Z" fill="#941A23"/>
<path d="M286.59 448.817C265.68 448.177 241.36 447.437 218.69 430.817C206.981 422.102 197.505 410.734 191.04 397.647C187.228 386.727 185.022 375.311 184.49 363.757C183.691 344.539 187.46 325.405 195.49 307.927H235.67C235.67 307.927 195.44 419.687 288.44 420.237C381.44 420.787 415.58 364.097 415.58 364.097C411.78 375.637 396.41 417.587 354.49 438.037C329.73 450.127 306.44 449.417 286.59 448.817Z" fill="#E8A223"/>
<path d="M196.96 314.057C202.294 314.257 207.814 314.364 213.52 314.377C218.854 314.377 224.037 314.284 229.07 314.097C225.937 322.067 224.48 330.598 224.79 339.157C219.224 338.664 213.44 338.29 207.44 338.037C202.107 337.79 196.894 337.624 191.8 337.537C192.01 331.837 192.92 326.184 194.51 320.707C195.186 318.441 196.004 316.22 196.96 314.057Z" fill="#F5BA39"/>
<path d="M190.11 343.757C200.956 342.924 211.862 343.35 222.61 345.027C220.833 352.187 220.463 359.625 221.52 366.927C214.945 367.331 208.353 367.394 201.77 367.117C197.38 366.937 193.2 366.607 189.25 366.177C188.395 360.702 188.321 355.133 189.03 349.637C189.31 347.537 189.68 345.577 190.11 343.757Z" fill="#F5BA39"/>
<path d="M190.27 375.697C196.818 374.364 203.471 373.618 210.15 373.467C214.228 373.374 218.308 373.507 222.37 373.867C222.942 377.619 223.77 381.328 224.85 384.967C225.6 387.487 226.42 389.827 227.27 391.967C220.819 395.49 213.619 397.42 206.27 397.597C202.303 397.68 198.342 397.239 194.49 396.287C192.51 391.719 191.2 386.889 190.6 381.947C190.359 379.872 190.249 377.785 190.27 375.697Z" fill="#F5BA39"/>
<path d="M198.38 405.197C209.37 404.737 220.14 401.97 229.99 397.077C233.475 399.966 236.713 403.14 239.67 406.567C240.73 407.8 241.73 409.01 242.67 410.197C241.42 411.997 235.38 420.267 224.51 421.917C220.482 422.504 216.373 422.141 212.51 420.857C210.51 419.097 208.45 417.107 206.35 414.857C203.483 411.816 200.821 408.589 198.38 405.197Z" fill="#F5BA39"/>
<path d="M225.29 430.267C231.808 427.434 237.913 423.734 243.44 419.267C245.44 417.677 247.18 416.067 248.8 414.477C253.315 415.728 257.658 417.531 261.73 419.847C263.21 420.687 264.58 421.557 265.84 422.427C264.72 425.707 261.29 434.197 252.7 438.727C250.976 439.632 249.15 440.327 247.26 440.797C239.02 439.641 231.337 435.971 225.26 430.287L225.29 430.267Z" fill="#F5BA39"/>
<path d="M262.44 444.767C266.182 439.468 269.249 433.724 271.57 427.667C272.06 426.367 272.51 425.097 272.91 423.847C279.686 422.776 286.615 423.234 293.19 425.187C292.233 432.256 289.456 438.955 285.13 444.627C282.507 445.762 279.73 446.504 276.89 446.827C271.977 447.356 267.01 446.648 262.44 444.767Z" fill="#F5BA39"/>
<path d="M293.89 445.537C295.852 440.281 297.244 434.83 298.04 429.277C298.23 427.907 298.38 426.567 298.5 425.277C305.045 423.444 311.78 422.374 318.57 422.087C318.837 427.293 318.609 432.513 317.89 437.677C317.51 440.437 317.01 443.007 316.45 445.387C313.75 445.947 311.013 446.314 308.26 446.487C303.449 446.773 298.622 446.453 293.89 445.537Z" fill="#F5BA39"/>
<path d="M325.94 443.857C326.14 434.077 325.89 422.327 325.8 421.407C325.8 421.407 330.61 419.807 332.96 419.087C336.611 417.988 340.338 417.163 344.11 416.617C345.753 420.878 346.793 425.348 347.2 429.897C347.414 432.506 347.414 435.128 347.2 437.737C344.72 438.647 342.11 439.537 339.38 440.377C334.69 441.827 330.18 442.967 325.94 443.857Z" fill="#F5BA39"/>
<path d="M353.71 434.207C352.98 430.097 352.18 425.897 351.3 421.637C350.85 419.447 350.38 417.277 349.91 415.147C351.957 413.987 354.107 412.83 356.36 411.677C358.36 410.677 360.36 409.677 362.28 408.797C365.28 411.759 367.458 415.449 368.6 419.507C369.268 421.924 369.548 424.432 369.43 426.937C367.34 427.937 365.22 428.937 363.05 429.987C359.904 431.467 356.79 432.874 353.71 434.207Z" fill="#F5BA39"/>
<path d="M375.31 420.417C374.03 417.303 372.68 414.153 371.26 410.967C370.527 409.32 369.79 407.7 369.05 406.107C370.533 404.883 372.134 403.811 373.83 402.907C375.274 402.139 376.779 401.493 378.33 400.977C381.296 403.798 383.692 407.162 385.39 410.887C383.014 414.964 379.515 418.272 375.31 420.417Z" fill="#F5BA39"/>
<path d="M388.81 407.657C387.5 405.517 386.12 403.337 384.69 401.147C383.96 400.017 383.22 398.907 382.48 397.807C383.436 396.729 384.494 395.748 385.64 394.877C386.614 394.122 387.651 393.453 388.74 392.877C391.27 394.614 393.442 396.821 395.14 399.377C394.626 400.724 393.955 402.006 393.14 403.197C391.956 404.914 390.492 406.422 388.81 407.657Z" fill="#F5BA39"/>
<path d="M397.98 396.747C396.84 395.397 395.65 394.047 394.42 392.677L392.52 390.607C393.53 389.028 394.822 387.649 396.33 386.537C397.391 387.037 398.396 387.647 399.33 388.357C400.108 388.958 400.831 389.628 401.49 390.357C401.274 391.347 400.938 392.307 400.49 393.217C399.856 394.525 399.008 395.718 397.98 396.747Z" fill="#F5BA39"/>
<path d="M248.94 335.737C248.94 335.737 198.6 347.167 201.58 377.017C201.58 377.017 204.58 395.847 227.2 379.397C241.073 369.232 253.828 357.624 265.25 344.767L248.94 335.737Z" fill="#B71F2E"/>
<path d="M248.94 335.737C248.94 335.737 198.6 347.167 201.58 377.017C203.5 381.147 205.79 385.437 207.06 385.097C208.75 384.637 205.75 376.717 208.4 368.167C211.74 357.377 222.75 349.877 230.89 346.927C234.38 345.667 237.06 345.347 247.06 342.007C250.5 340.857 253.31 339.847 255.15 339.177L248.94 335.737Z" fill="#DF1F29"/>
<path d="M207.831 367.616C208.142 364.9 204.396 362.24 199.463 361.674C194.53 361.109 190.279 362.852 189.968 365.568C189.656 368.284 193.403 370.945 198.336 371.51C203.268 372.076 207.519 370.332 207.831 367.616Z" fill="#482226"/>
<path d="M204.221 382.836C208.607 380.508 211.123 376.663 209.841 374.248C208.56 371.834 203.965 371.763 199.58 374.091C195.194 376.419 192.678 380.264 193.96 382.678C195.242 385.093 199.836 385.163 204.221 382.836Z" fill="#482226"/>
<path d="M215.127 389.574C218.58 386.006 219.786 381.572 217.821 379.671C215.857 377.77 211.465 379.121 208.013 382.689C204.56 386.257 203.353 390.691 205.318 392.592C207.282 394.493 211.674 393.142 215.127 389.574Z" fill="#482226"/>
<path d="M252.88 360.777L267.26 371.477L275.98 356.127L252.88 360.777Z" fill="#D32027"/>
<path d="M298.14 381.047L313.37 390.507L320.77 374.487L298.14 381.047Z" fill="#D32027"/>
<path d="M381.23 345.317L396.5 354.687L403.82 338.627L381.23 345.317Z" fill="#D32027"/>
<path d="M356.97 382.577L372.19 390.407L378 374.587L356.97 382.577Z" fill="#D32027"/>
<path d="M276.32 408.337C276.32 408.337 264.95 420.677 270.72 431.877C272.85 435.987 277.29 439.947 285.45 443.087L272.85 435.987C272.85 435.987 229.71 433.397 235.59 468.687C241.47 503.977 299.29 485.987 299.29 485.987C299.29 485.987 316.85 484.177 335.29 447.627C339.85 433.947 339.02 424.047 337.4 417.517C335.27 408.917 329.55 397.127 333.13 394.417C333.63 394.057 334.08 393.997 276.32 408.337Z" fill="#B51F2B"/>
<path d="M270.81 432.217C272.56 436.223 275.463 439.618 279.15 441.967C281.095 443.2 283.211 444.14 285.43 444.757L272.94 436.337C272.94 436.337 247.61 434.817 238.44 449.987C233.35 458.387 235.44 467.807 235.71 469.037C236.23 471.467 238.5 480.557 246.71 485.827C250.58 488.307 253.97 488.827 260.12 489.617C269.784 490.889 279.595 490.483 289.12 488.417C296.647 486.782 303.928 484.173 310.78 480.657C302.706 472.582 296.786 462.611 293.56 451.657C286.69 427.987 295.27 408.127 297.85 402.657C290.52 404.657 284.54 406.167 280.2 407.187C279.02 407.361 277.869 407.697 276.78 408.187C270.11 411.697 267.19 423.467 270.81 432.217Z" fill="#D81F26"/>
<path d="M267.76 480.947C267.76 480.947 258.24 485.827 261.3 500.777C264.36 515.727 282.44 496.487 282.44 496.487C282.44 496.487 292.06 488.807 283.89 480.967C275.72 473.127 267.76 480.947 267.76 480.947Z" fill="#31171A"/>
<path d="M245.99 465.627C245.99 465.627 235.67 468.467 235.61 483.727C235.55 498.987 257.2 483.847 257.2 483.847C257.2 483.847 268.2 478.307 261.79 468.947C255.38 459.587 245.99 465.627 245.99 465.627Z" fill="#31171A"/>
<path d="M241.44 442.667C241.44 442.667 231.16 439.667 223.16 452.667C215.16 465.667 241.53 464.017 241.53 464.017C241.53 464.017 253.79 465.017 253.2 453.687C252.61 442.357 241.44 442.667 241.44 442.667Z" fill="#31171A"/>
<path d="M501.09 312.01C501.09 312.01 500.59 311.42 499.66 310.47C495.48 306.12 482.49 294.2 467.66 296.03C467.66 296.03 467.66 296.03 467.61 296.03C456.38 297.47 444.12 306.82 433.86 333.37C433.86 333.37 433.49 332.88 432.8 332.05L432.54 331.74C432.09 331.2 431.54 330.55 430.86 329.82C427.373 325.956 423.431 322.527 419.12 319.61C410.63 313.98 399.37 310.21 387.9 317C382.38 320.26 376.8 326 371.45 335.1C371.22 335.48 371 335.86 370.78 336.26C370.691 335.897 370.581 335.54 370.45 335.19C370.31 334.83 370.14 334.39 369.91 333.9C369.68 333.41 369.49 333.01 369.21 332.5C366.81 328.3 361.21 322.05 348.56 321.91C341.71 321.86 332.82 323.59 321.29 328.41L312.29 326.75L311.85 326.67L269.64 318.83L243 313.88C243 313.88 449.31 236.78 451.27 206C451.27 206 452.33 206.57 454.14 207.76C455.14 208.41 458.27 210.83 461.14 213.1C461.86 213.68 465.79 216.87 466.14 217.25C482.32 232.06 505.19 262.26 501.09 312.01Z" fill="#AE1F2A"/>
<path d="M408.63 253.05C425.416 276.442 434.256 304.601 433.85 333.39C436.138 324.54 440.522 316.37 446.63 309.57C450.87 304.9 457.07 298.06 466.34 296.15C484.75 292.37 500.34 311.06 501.09 312.01C501.883 303.618 501.803 295.166 500.85 286.79C499.504 274.479 496.202 262.461 491.07 251.19C485.683 239.696 478.333 229.229 469.35 220.26C443.1 233.47 423.6 244.32 409.84 252.34L407.62 253.63L406.62 254.2C404.62 255.37 361.22 278.2 355.33 281.29C354.47 281.74 352.51 282.78 349.79 284.18C349.79 284.18 343.38 287.6 336.48 290.82C316.99 299.91 294.32 309.65 268.7 319.14L320.63 329.33C326.96 325.648 333.978 323.303 341.25 322.44C347.96 321.66 354.99 320.85 361.64 325.04C365.768 327.748 368.958 331.667 370.77 336.26C371.32 331.35 374.91 295.65 356.46 285.16C354.973 284.305 353.388 283.634 351.74 283.16L408.63 253.05Z" fill="#D32027"/>
</svg>
