<svg width="499" height="512" viewBox="0 0 499 512" fill="none" xmlns="http://www.w3.org/2000/svg">
<g id="dragon">
<g id="wing left">
<path id="Vector" d="M0.540295 338.167C0.540295 338.167 1.04029 337.577 1.97029 336.627C6.15029 332.277 19.1403 320.357 33.9703 322.187C33.9703 322.187 33.9703 322.187 34.0203 322.187C45.2503 323.627 57.5103 332.977 67.7703 359.527C67.7703 359.527 68.1403 359.037 68.8303 358.207L69.0903 357.897C69.5403 357.357 70.0903 356.707 70.7703 355.977C74.2575 352.112 78.1994 348.684 82.5103 345.767C91.0003 340.137 102.26 336.367 113.73 343.157C119.25 346.417 124.83 352.157 130.18 361.257C130.41 361.637 130.63 362.017 130.85 362.417C130.939 362.054 131.049 361.696 131.18 361.347C131.32 360.987 131.49 360.547 131.72 360.057C131.95 359.567 132.14 359.167 132.42 358.657C134.82 354.457 140.42 348.207 153.07 348.067C159.92 348.017 168.81 349.747 180.34 354.567L189.34 352.907L189.78 352.827L231.99 344.987L258.63 340.037C258.63 340.037 52.3203 262.937 50.3603 232.157C50.3603 232.157 49.3003 232.727 47.4903 233.917C46.4903 234.567 43.3603 236.987 40.4903 239.257C39.7703 239.837 35.8403 243.027 35.4903 243.407C19.3103 258.217 -3.55971 288.417 0.540295 338.167Z" fill="#AE1F2A"/>
<path id="Vector_2" d="M93.0003 279.207C76.2145 302.599 67.3748 330.758 67.7803 359.547C65.4919 350.697 61.1087 342.527 55.0003 335.727C50.7603 331.057 44.5603 324.217 35.2903 322.307C16.8803 318.527 1.29033 337.217 0.54033 338.167C-0.252976 329.774 -0.172545 321.322 0.78033 312.947C2.12637 300.635 5.42786 288.618 10.5603 277.347C15.947 265.852 23.2972 255.386 32.2803 246.417C58.5303 259.627 78.0303 270.477 91.7903 278.497L94.0103 279.787L95.0103 280.357C97.0103 281.527 140.41 304.357 146.3 307.447C147.16 307.897 149.12 308.937 151.84 310.337C151.84 310.337 158.25 313.757 165.15 316.977C184.64 326.067 207.31 335.807 232.93 345.297L181 355.487C174.67 351.805 167.652 349.46 160.38 348.597C153.67 347.817 146.64 347.007 139.99 351.197C135.862 353.905 132.673 357.824 130.86 362.417C130.31 357.507 126.72 321.807 145.17 311.317C146.657 310.462 148.242 309.79 149.89 309.317L93.0003 279.207Z" fill="#D32027"/>
</g>
<g id="foot left">
<path id="Vector_3" d="M212.82 393.107C212.82 393.107 199 402.617 202.15 414.817C203.31 419.297 206.76 424.137 214.03 429.007L203.31 419.297C203.31 419.297 161.82 407.207 159.73 442.927C157.64 478.647 218.02 473.927 218.02 473.927C218.02 473.927 235.53 476.057 261.64 444.507C261.64 444.507 261.31 393.757 271.33 392.137C281.35 390.517 212.82 393.107 212.82 393.107Z" fill="#B51F2B"/>
<path id="Vector_4" d="M202.16 415.167C202.985 419.466 205.075 423.422 208.16 426.527C209.79 428.154 211.646 429.538 213.67 430.637L203.36 419.637C203.36 419.637 179 412.537 166.67 425.297C159.84 432.367 159.8 442.017 159.78 443.297C159.78 445.787 159.95 455.157 166.78 462.117C170 465.387 173.2 466.617 179.02 468.787C188.148 472.16 197.789 473.936 207.52 474.037C215.221 474.107 222.899 473.176 230.36 471.267C224.278 461.604 220.713 450.572 219.99 439.177C218.55 414.577 231.31 397.107 235.04 392.347C227.44 392.707 221.28 392.817 216.82 392.857C215.628 392.78 214.43 392.864 213.26 393.107C206.02 394.997 200.57 405.827 202.16 415.167Z" fill="#D81F26"/>
<path id="Vector_5" d="M188.38 462.007C188.38 462.007 178.02 464.657 177.69 479.917C177.36 495.177 199.28 480.417 199.28 480.417C199.28 480.417 210.35 475.067 204.13 465.597C197.91 456.127 188.38 462.007 188.38 462.007Z" fill="#31171A"/>
<path id="Vector_6" d="M170.55 442.247C170.55 442.247 159.86 442.717 156.41 457.587C152.96 472.457 177.41 462.497 177.41 462.497C177.41 462.497 189.34 459.497 185.18 448.987C181.02 438.477 170.55 442.247 170.55 442.247Z" fill="#31171A"/>
<path id="Vector_7" d="M171.18 418.837C171.18 418.837 161.8 413.677 151.12 424.577C140.44 435.477 166.52 439.717 166.52 439.717C166.52 439.717 178.26 443.397 180.19 432.237C182.12 421.077 171.18 418.837 171.18 418.837Z" fill="#31171A"/>
</g>
<g id="head">
<path id="Vector_8" d="M376.69 268.597L265.8 308.227C260.29 309.227 253.07 310.357 244.54 311.097C233.394 312.146 222.18 312.289 211.01 311.527C203.93 310.997 184.75 309.527 166.43 302.177C137.07 290.317 119.67 267.077 111.38 253.737C84.1004 197.737 88.9704 135.737 123.5 97.4169C145.12 73.4169 172.72 64.8969 187.9 61.6369C207.13 52.3528 227.227 44.984 247.9 39.6369C292.19 28.1769 308.44 34.1069 313.77 36.4169C323.21 40.4169 329.01 46.4169 336.17 52.4869C356.53 69.6569 389.82 97.3269 400.78 145.297C411.96 194.227 394.78 233.857 389.85 245.017C385.16 255.617 382.55 261.517 376.69 268.597Z" fill="#B8202D"/>
<path id="Vector_9" d="M414.67 138.697C414.67 138.697 470.26 156.317 411.36 183.287C411.36 183.287 444.94 199.797 411.36 219.607C411.36 219.607 443.66 227.317 407.7 248.607C394.25 256.607 385.11 261.607 378.94 264.797C384.45 255.517 388.94 248.057 392.44 238.797C392.44 238.797 407.9 200.167 401.44 156.327C390.44 80.9568 315.49 37.2068 309.44 33.8068L289.44 30.8068L276.5 32.7268L266.87 35.7268C271.402 29.4859 277.096 24.1788 283.64 20.0968C287.94 17.4268 295.72 10.5368 315.59 10.9968C344.1 11.6668 357.9 9.46681 371.59 13.6968C379.59 16.1668 401.24 22.4368 401.5 32.1768C401.67 38.5968 392.5 43.7468 391.04 44.5768C381.6 49.8768 369.04 49.0768 364.83 48.5768C377.7 50.3768 471.13 64.5268 414.16 89.6668C414.12 89.7068 487.87 121.087 414.67 138.697Z" fill="#5F0D14"/>
<path id="Vector_10" d="M243.932 42.882C246.31 23.1147 235.045 5.50291 218.771 3.54501C202.496 1.58711 187.375 16.0245 184.997 35.7918C182.619 55.5592 193.884 73.1709 210.159 75.1288C226.433 77.0867 241.554 62.6493 243.932 42.882Z" fill="#FFCB4D"/>
<path id="Vector_11" d="M225.747 41.178C226.965 34.6129 224.651 28.6784 220.578 27.9228C216.506 27.1673 212.217 31.8768 210.999 38.4419C209.781 45.007 212.095 50.9416 216.168 51.6972C220.24 52.4527 224.529 47.7431 225.747 41.178Z" fill="white"/>
<path id="Vector_12" d="M226.218 40.1913C227.433 33.6425 225.997 27.8845 223.01 27.3304C220.023 26.7763 216.617 31.636 215.402 38.1848C214.188 44.7336 215.624 50.4916 218.61 51.0457C221.597 51.5998 225.003 46.7401 226.218 40.1913Z" fill="black"/>
<path id="Vector_13" d="M244.62 40.5669C226.266 31.9718 205.838 28.7973 185.74 31.4169C187.55 14.2769 202.74 2.11689 218.24 3.52689C235.07 5.07689 248.29 22.1769 244.62 40.5669Z" fill="#C9202F"/>
<path id="Vector_14" d="M282.055 76.9748C298.329 75.0084 309.585 57.3908 307.196 37.6247C304.808 17.8586 289.679 3.42911 273.406 5.39553C257.132 7.36195 245.876 24.9796 248.265 44.7457C250.653 64.5118 265.782 78.9413 282.055 76.9748Z" fill="#FFCB4D"/>
<path id="Vector_15" d="M268.639 54.9423C272.711 54.1847 275.022 48.2489 273.801 41.6844C272.579 35.12 268.288 30.4126 264.216 31.1703C260.143 31.928 257.832 37.8638 259.054 44.4282C260.275 50.9927 264.567 55.7 268.639 54.9423Z" fill="white"/>
<path id="Vector_16" d="M266.181 54.2914C269.168 53.7358 270.601 47.977 269.383 41.4288C268.164 34.8807 264.756 30.0228 261.769 30.5784C258.783 31.134 257.35 36.8928 258.568 43.441C259.786 49.9892 263.195 54.8471 266.181 54.2914Z" fill="black"/>
<path id="Vector_17" d="M247.56 42.4169C265.915 33.8216 286.345 30.6538 306.44 33.2869C304.62 16.1469 289.44 3.9969 273.93 5.4169C257.1 6.9569 243.89 24.0569 247.56 42.4169Z" fill="#C9202F"/>
<path id="Vector_18" d="M346.44 155.857L339.44 139.507C339.44 139.507 381.18 73.8668 393.81 69.4168C406.44 64.9668 410.03 69.5468 410.03 69.5468C410.03 69.5468 407.56 94.1968 383.2 113.117C383.2 113.117 403.7 99.7168 407.76 107.777C411.82 115.837 378.95 135.327 378.95 135.327C378.95 135.327 416.89 127.437 393.21 142.807L346.44 155.857Z" fill="#D32027"/>
<path id="Vector_19" d="M113.73 100.127C113.04 97.717 109.84 86.537 114.2 83.567C115.12 82.947 116.36 82.697 118.96 83.137C126.69 84.427 132.57 89.407 136.03 93.047C137.556 95.0971 138.879 97.2907 139.98 99.597C142.24 104.347 144.16 108.387 142.98 112.077C141.32 117.347 133.6 120.987 127.46 119.737C118.84 117.977 115.7 107.007 113.73 100.127Z" fill="#31171A"/>
<path id="Vector_20" d="M192.15 96.2269C200.73 89.8269 211.08 90.9169 215.25 96.2269C218.53 100.407 217.81 106.987 215.82 111.347C214.378 114.414 212.084 117 209.21 118.797C208.06 119.667 198.08 127.037 187.74 123.177C186.12 122.577 181.42 120.817 179.82 116.717C177.57 110.917 182.12 102.087 192.15 96.2269Z" fill="#31171A"/>
<path id="Vector_21" d="M205.55 186.617C208.4 181.317 214.91 171.177 225.32 169.517C225.983 169.414 226.65 169.347 227.32 169.317C228.003 169.289 228.685 169.405 229.32 169.657C236.32 172.477 234.06 191.657 233.92 192.717L205.55 186.617Z" fill="white"/>
<path id="Vector_22" d="M255.72 197.767C255.9 203.767 257.17 215.767 265.72 221.917C266.263 222.305 266.828 222.662 267.41 222.987C268.01 223.314 268.67 223.515 269.35 223.577C276.88 224.197 283.43 206.057 283.79 205.017L255.72 197.767Z" fill="white"/>
<path id="Vector_23" d="M93.7603 180.767C110.48 179.977 128.19 179.867 146.76 180.767C201.499 183.322 255.601 193.604 307.46 211.307L306.01 214.887C237.979 190.753 165.762 180.66 93.7203 185.217L93.7603 180.767Z" fill="#D32027"/>
</g>
<g id="body">
<path id="Vector_24" d="M212.28 343.627C212.28 343.627 160.88 348.367 159.92 378.347C159.92 378.347 160.43 397.407 185 384.057C200.09 375.802 214.256 365.963 227.26 354.707L212.28 343.627Z" fill="#B71F2E"/>
<path id="Vector_25" d="M212.28 343.627C212.28 343.627 160.88 348.367 159.92 378.347C161.28 382.697 162.99 387.247 164.29 387.077C166.03 386.847 164.1 378.597 167.84 370.467C172.57 360.207 184.46 354.207 192.92 352.357C196.55 351.567 199.24 351.597 209.59 349.597C213.16 348.907 216.07 348.277 217.99 347.847L212.28 343.627Z" fill="#DF1F29"/>
<path id="Vector_26" d="M167.357 369.876C168.021 367.225 164.656 364.096 159.84 362.889C155.024 361.682 150.581 362.854 149.916 365.505C149.251 368.157 152.617 371.285 157.433 372.492C162.249 373.699 166.692 372.528 167.357 369.876Z" fill="#482226"/>
<path id="Vector_27" d="M161.81 384.433C166.462 382.699 169.46 379.216 168.505 376.655C167.55 374.093 163.005 373.422 158.352 375.156C153.7 376.89 150.702 380.372 151.657 382.934C152.612 385.495 157.157 386.166 161.81 384.433Z" fill="#482226"/>
<path id="Vector_28" d="M171.686 392.598C175.576 389.514 177.353 385.277 175.655 383.134C173.956 380.992 169.426 381.756 165.535 384.841C161.644 387.926 159.867 392.163 161.566 394.305C163.264 396.447 167.795 395.683 171.686 392.598Z" fill="#482226"/>
<path id="Vector_29" d="M195.44 312.947C186.981 330.334 183.358 349.677 184.95 368.947C185.81 378.717 188.55 410.127 213.33 431.577C234.93 450.267 262.87 452.417 275.03 453.417C281.6 453.927 291.34 454.017 292.03 454.017C309.03 454.157 317.58 454.217 326.4 451.937C336.09 449.427 349.87 443.727 352.4 442.577C355.426 441.235 358.552 440.131 361.75 439.277C366.772 436.221 371.559 432.795 376.07 429.027C399.44 409.527 410.32 385.077 415.53 369.147C418.058 365.37 421.53 362.319 425.6 360.297C440.11 353.297 455.6 363.827 456.42 364.417C456.42 364.417 427.8 295.067 382.66 330.297C382.66 330.297 374.41 304.977 332.58 329.197L298.45 285.197L196.07 287.397C195.89 295.89 195.68 304.407 195.44 312.947Z" fill="#B8202D"/>
<path id="Vector_30" d="M452.73 356.627C452.73 356.627 468.06 337.737 460.08 329.627C452.1 321.517 473.84 333.867 482.92 385.327C482.92 385.327 444.92 399.327 431.18 394.957C431.18 394.917 464.91 379.147 452.73 356.627Z" fill="#941A23"/>
<path id="Vector_31" d="M286.59 453.817C265.68 453.177 241.36 452.437 218.69 435.817C206.981 427.102 197.505 415.734 191.04 402.647C187.228 391.727 185.022 380.311 184.49 368.757C183.691 349.539 187.46 330.405 195.49 312.927H235.67C235.67 312.927 195.44 424.687 288.44 425.237C381.44 425.787 415.58 369.097 415.58 369.097C411.78 380.637 396.41 422.587 354.49 443.037C329.73 455.127 306.44 454.417 286.59 453.817Z" fill="#E8A223"/>
<path id="Vector_32" d="M196.96 319.057C202.294 319.257 207.814 319.364 213.52 319.377C218.854 319.377 224.037 319.284 229.07 319.097C225.937 327.067 224.48 335.598 224.79 344.157C219.224 343.664 213.44 343.29 207.44 343.037C202.107 342.79 196.894 342.624 191.8 342.537C192.01 336.837 192.92 331.184 194.51 325.707C195.186 323.441 196.004 321.22 196.96 319.057Z" fill="#F5BA39"/>
<path id="Vector_33" d="M190.11 348.757C200.956 347.924 211.862 348.35 222.61 350.027C220.833 357.187 220.463 364.625 221.52 371.927C214.945 372.331 208.352 372.394 201.77 372.117C197.38 371.937 193.2 371.607 189.25 371.177C188.395 365.702 188.321 360.133 189.03 354.637C189.31 352.537 189.68 350.577 190.11 348.757Z" fill="#F5BA39"/>
<path id="Vector_34" d="M190.27 380.697C196.818 379.364 203.471 378.618 210.15 378.467C214.228 378.374 218.308 378.507 222.37 378.867C222.942 382.619 223.77 386.328 224.85 389.967C225.6 392.487 226.42 394.827 227.27 396.967C220.819 400.49 213.619 402.42 206.27 402.597C202.303 402.68 198.342 402.239 194.49 401.287C192.51 396.719 191.2 391.889 190.6 386.947C190.359 384.872 190.249 382.785 190.27 380.697Z" fill="#F5BA39"/>
<path id="Vector_35" d="M198.38 410.197C209.37 409.737 220.14 406.97 229.99 402.077C233.475 404.966 236.713 408.14 239.67 411.567C240.73 412.8 241.73 414.01 242.67 415.197C241.42 416.997 235.38 425.267 224.51 426.917C220.482 427.504 216.373 427.141 212.51 425.857C210.51 424.097 208.45 422.107 206.35 419.857C203.483 416.816 200.821 413.589 198.38 410.197Z" fill="#F5BA39"/>
<path id="Vector_36" d="M225.29 435.267C231.808 432.434 237.913 428.734 243.44 424.267C245.44 422.677 247.18 421.067 248.8 419.477C253.315 420.728 257.658 422.531 261.73 424.847C263.21 425.687 264.58 426.557 265.84 427.427C264.72 430.707 261.29 439.197 252.7 443.727C250.976 444.632 249.15 445.327 247.26 445.797C239.02 444.641 231.337 440.971 225.26 435.287L225.29 435.267Z" fill="#F5BA39"/>
<path id="Vector_37" d="M262.44 449.767C266.182 444.468 269.249 438.724 271.57 432.667C272.06 431.367 272.51 430.097 272.91 428.847C279.686 427.776 286.615 428.234 293.19 430.187C292.233 437.256 289.456 443.955 285.13 449.627C282.507 450.762 279.73 451.504 276.89 451.827C271.977 452.356 267.01 451.648 262.44 449.767Z" fill="#F5BA39"/>
<path id="Vector_38" d="M293.89 450.537C295.852 445.281 297.243 439.83 298.04 434.277C298.23 432.907 298.38 431.567 298.5 430.277C305.045 428.444 311.78 427.374 318.57 427.087C318.837 432.293 318.609 437.513 317.89 442.677C317.51 445.437 317.01 448.007 316.45 450.387C313.75 450.947 311.013 451.314 308.26 451.487C303.449 451.773 298.622 451.453 293.89 450.537Z" fill="#F5BA39"/>
<path id="Vector_39" d="M325.94 448.857C326.14 439.077 325.89 427.327 325.8 426.407C325.8 426.407 330.61 424.807 332.96 424.087C336.611 422.988 340.338 422.163 344.11 421.617C345.753 425.878 346.793 430.348 347.2 434.897C347.414 437.506 347.414 440.128 347.2 442.737C344.72 443.647 342.11 444.537 339.38 445.377C334.69 446.827 330.18 447.967 325.94 448.857Z" fill="#F5BA39"/>
<path id="Vector_40" d="M353.71 439.207C352.98 435.097 352.18 430.897 351.3 426.637C350.85 424.447 350.38 422.277 349.91 420.147C351.957 418.987 354.107 417.83 356.36 416.677C358.36 415.677 360.36 414.677 362.28 413.797C365.28 416.759 367.458 420.449 368.6 424.507C369.268 426.924 369.548 429.432 369.43 431.937C367.34 432.937 365.22 433.937 363.05 434.987C359.904 436.467 356.79 437.874 353.71 439.207Z" fill="#F5BA39"/>
<path id="Vector_41" d="M375.31 425.417C374.03 422.303 372.68 419.153 371.26 415.967C370.527 414.32 369.79 412.7 369.05 411.107C370.533 409.883 372.134 408.811 373.83 407.907C375.274 407.139 376.779 406.493 378.33 405.977C381.296 408.798 383.692 412.162 385.39 415.887C383.014 419.964 379.515 423.272 375.31 425.417Z" fill="#F5BA39"/>
<path id="Vector_42" d="M388.81 412.657C387.5 410.517 386.12 408.337 384.69 406.147C383.96 405.017 383.22 403.907 382.48 402.807C383.436 401.729 384.494 400.748 385.64 399.877C386.614 399.122 387.652 398.453 388.74 397.877C391.27 399.614 393.442 401.821 395.14 404.377C394.626 405.724 393.955 407.006 393.14 408.197C391.956 409.914 390.492 411.422 388.81 412.657Z" fill="#F5BA39"/>
<path id="Vector_43" d="M397.98 401.747C396.84 400.397 395.65 399.047 394.42 397.677L392.52 395.607C393.53 394.028 394.822 392.649 396.33 391.537C397.391 392.037 398.396 392.647 399.33 393.357C400.108 393.958 400.831 394.628 401.49 395.357C401.274 396.347 400.938 397.307 400.49 398.217C399.856 399.525 399.008 400.718 397.98 401.747Z" fill="#F5BA39"/>
<path id="Vector_44" d="M248.94 340.737C248.94 340.737 198.6 352.167 201.58 382.017C201.58 382.017 204.58 400.847 227.2 384.397C241.073 374.232 253.828 362.624 265.25 349.767L248.94 340.737Z" fill="#B71F2E"/>
<path id="Vector_45" d="M248.94 340.737C248.94 340.737 198.6 352.167 201.58 382.017C203.5 386.147 205.79 390.437 207.06 390.097C208.75 389.637 205.75 381.717 208.4 373.167C211.74 362.377 222.75 354.877 230.89 351.927C234.38 350.667 237.06 350.347 247.06 347.007C250.5 345.857 253.31 344.847 255.15 344.177L248.94 340.737Z" fill="#DF1F29"/>
<path id="Vector_46" d="M207.831 372.616C208.142 369.9 204.396 367.24 199.463 366.674C194.53 366.109 190.279 367.852 189.968 370.568C189.656 373.284 193.403 375.945 198.336 376.51C203.268 377.076 207.519 375.332 207.831 372.616Z" fill="#482226"/>
<path id="Vector_47" d="M204.221 387.836C208.607 385.508 211.123 381.663 209.841 379.248C208.56 376.834 203.965 376.763 199.58 379.091C195.194 381.419 192.678 385.264 193.96 387.678C195.242 390.093 199.836 390.163 204.221 387.836Z" fill="#482226"/>
<path id="Vector_48" d="M215.127 394.574C218.58 391.006 219.786 386.572 217.821 384.671C215.857 382.77 211.465 384.121 208.013 387.689C204.56 391.257 203.353 395.691 205.318 397.592C207.283 399.493 211.674 398.142 215.127 394.574Z" fill="#482226"/>
<path id="Vector_49" d="M252.88 365.777L267.26 376.477L275.98 361.127L252.88 365.777Z" fill="#D32027"/>
<path id="Vector_50" d="M298.14 386.047L313.37 395.507L320.77 379.487L298.14 386.047Z" fill="#D32027"/>
<path id="Vector_51" d="M381.23 350.317L396.5 359.687L403.82 343.627L381.23 350.317Z" fill="#D32027"/>
<path id="Vector_52" d="M356.97 387.577L372.19 395.407L378 379.587L356.97 387.577Z" fill="#D32027"/>
</g>
<g id="foot right">
<path id="Vector_53" d="M276.32 413.337C276.32 413.337 264.95 425.677 270.72 436.877C272.85 440.987 277.29 444.947 285.45 448.087L272.85 440.987C272.85 440.987 229.71 438.397 235.59 473.687C241.47 508.977 299.29 490.987 299.29 490.987C299.29 490.987 316.85 489.177 335.29 452.627C339.85 438.947 339.02 429.047 337.4 422.517C335.27 413.917 329.55 402.127 333.13 399.417C333.63 399.057 334.08 398.997 276.32 413.337Z" fill="#B51F2B"/>
<path id="Vector_54" d="M270.81 437.217C272.56 441.223 275.463 444.618 279.15 446.967C281.095 448.2 283.211 449.14 285.43 449.757L272.94 441.337C272.94 441.337 247.61 439.817 238.44 454.987C233.35 463.387 235.44 472.807 235.71 474.037C236.23 476.467 238.5 485.557 246.71 490.827C250.58 493.307 253.97 493.827 260.12 494.617C269.784 495.889 279.595 495.483 289.12 493.417C296.647 491.782 303.928 489.173 310.78 485.657C302.706 477.582 296.786 467.611 293.56 456.657C286.69 432.987 295.27 413.127 297.85 407.657C290.52 409.657 284.54 411.167 280.2 412.187C279.02 412.361 277.869 412.697 276.78 413.187C270.11 416.697 267.19 428.467 270.81 437.217Z" fill="#D81F26"/>
<path id="Vector_55" d="M267.76 485.947C267.76 485.947 258.24 490.827 261.3 505.777C264.36 520.727 282.44 501.487 282.44 501.487C282.44 501.487 292.06 493.807 283.89 485.967C275.72 478.127 267.76 485.947 267.76 485.947Z" fill="#31171A"/>
<path id="Vector_56" d="M245.99 470.627C245.99 470.627 235.67 473.467 235.61 488.727C235.55 503.987 257.2 488.847 257.2 488.847C257.2 488.847 268.2 483.307 261.79 473.947C255.38 464.587 245.99 470.627 245.99 470.627Z" fill="#31171A"/>
<path id="Vector_57" d="M241.44 447.667C241.44 447.667 231.16 444.667 223.16 457.667C215.16 470.667 241.53 469.017 241.53 469.017C241.53 469.017 253.79 470.017 253.2 458.687C252.61 447.357 241.44 447.667 241.44 447.667Z" fill="#31171A"/>
</g>
<g id="wing right">
<path id="Vector_58" d="M404.44 257.497C415.057 271.605 422.822 287.647 427.3 304.727C430.059 315.333 431.51 326.238 431.62 337.197C433.693 328.291 437.877 320.015 443.82 313.067C447.94 308.287 453.97 301.307 463.19 299.167C481.5 294.937 497.52 313.237 498.32 314.167C498.906 305.76 498.617 297.314 497.46 288.967C495.815 276.692 492.22 264.758 486.81 253.617C481.141 242.262 473.538 231.982 464.34 223.237C438.44 237.087 419.18 248.417 405.61 256.767L403.44 258.107L402.44 258.707C400.44 259.927 357.64 283.787 351.83 287.037C350.98 287.517 349.04 288.607 346.36 290.037C346.36 290.037 340.03 293.617 333.22 297.037C313.96 306.607 291.54 316.897 266.15 327.037L318.32 335.947C324.558 332.115 331.514 329.6 338.76 328.557C345.45 327.617 352.46 326.627 359.21 330.657C363.398 333.267 366.674 337.11 368.59 341.657C369.02 336.727 371.73 300.947 353.03 290.907C351.524 290.104 349.926 289.486 348.27 289.067L404.44 257.497Z" fill="#D32027"/>
</g>
</g>
</svg>
