<svg width="297" height="305" viewBox="0 0 297 305" fill="none" xmlns="http://www.w3.org/2000/svg">
<path d="M248.117 56.1183C257.153 54.1259 268.495 57.1575 275.88 64.3712C279.346 67.7587 282.207 72.154 283.984 77.6541C302.061 133.598 270.146 161.91 270.146 161.91C247.997 181.208 218.716 176.826 213.821 176.012C243.986 181.572 261.081 201.077 258.845 215.275C257.546 223.521 249.602 232.111 240.882 234.517C232.154 236.923 204.922 230.351 213.839 231.921C206.316 230.014 188.972 224.532 173.502 208.72C158.928 193.828 153.644 177.575 151.701 170.052C156.156 150.18 163.757 136.999 169.459 128.956C187.083 104.086 200.687 108.28 223.878 79.0528C233.225 67.2465 237.412 58.4797 248.117 56.1183Z" fill="url(#paint0_linear)"/>
<path d="M45.9763 71.0737C36.1647 71.0276 25.0943 76.712 19.055 85.8268C16.218 90.107 14.2404 95.3053 13.6244 101.4C11.5717 121.842 16.6288 174.548 46.803 185.617C69.3226 193.877 97.9564 176.1 103.987 186.379C104.64 187.495 104.824 188.591 104.885 189.148C98.9871 191.227 81.7694 198.183 73.5229 215.579C71.1551 220.579 67.0139 229.32 70.4549 238.383C74.1849 248.21 84.8992 253.831 93.3681 254.307C102.951 254.852 129.705 241.956 120.813 245.572C128.184 241.909 144.925 232.355 157.425 212.514C169.199 193.828 171.043 175.8 171.376 167.571C162.314 147.973 151.49 136.012 143.784 128.951C119.963 107.119 106.8 114.503 76.2424 89.409C63.8913 79.2705 57.5911 71.1288 45.9763 71.0737Z" fill="url(#paint1_linear)" fill-opacity="0.8"/>
<path d="M179.869 144.399L172.891 170.85L150.477 171.552L160.803 142.949L179.869 144.399Z" fill="#F6BDA1"/>
<path d="M225.283 70.2702C225.283 70.2702 227.6 78.012 228.859 88.5982C229.75 96.1086 230.107 105.052 228.713 113.681C228.507 114.969 228.257 116.246 227.971 117.513C224.23 133.934 211.002 142.189 208.964 143.451C205.382 145.673 201.977 147.01 198.316 148.122C167.51 157.49 131.186 147.039 131.179 147.038C131.179 147.038 104.305 132.188 107.475 119.384C107.475 119.384 80.7107 115.027 98.8545 85.8508C98.8545 85.8508 111.12 75.6829 112.41 96.5209L130.294 51.0605L190.404 33.397L226.42 71.9158L229.088 90.7579C229.567 90.1604 231.512 87.8681 234.677 87.5884C235.218 87.5403 236.274 87.5085 237.445 87.8903C240.94 89.0194 242.518 92.8406 243.303 94.7546C243.97 96.38 245.678 101.22 243.902 106.875C243.381 108.537 242.437 111.529 239.518 113.933C236.169 116.695 232.399 116.893 231.138 116.91L228.268 116.107" fill="#FDFADD"/>
<path d="M204.04 122.671C211.165 122.704 216.954 120.068 216.969 116.784C216.984 113.499 211.221 110.809 204.095 110.775C196.97 110.742 191.182 113.378 191.166 116.662C191.151 119.947 196.914 122.637 204.04 122.671Z" fill="#FDE4D7"/>
<path opacity="0.6" d="M146.055 120.217C154.011 120.742 160.639 118.452 160.86 115.101C161.081 111.751 154.811 108.609 146.856 108.084C138.9 107.559 132.271 109.849 132.05 113.2C131.829 116.55 138.099 119.692 146.055 120.217Z" fill="#FDE4D7"/>
<path d="M175.801 113.495C176.481 111.881 176.292 110.365 176.142 109.61L175.997 107.015C176.103 107.568 176.233 108.093 176.405 108.658C177.938 113.573 181.043 115.085 180.428 116.527C179.937 117.676 177.775 118.73 169.643 117.69C169.843 117.675 174.271 117.143 175.801 113.495Z" fill="#DC6662"/>
<path d="M105.631 97.091C105.692 96.0721 105.226 95.1096 104.405 94.5698C103.745 94.1378 102.746 93.9087 101.994 94.3166C101.994 94.3166 101.112 94.7884 100.497 97.2093C100.478 97.2741 100.465 97.3394 100.445 97.4189C100.445 97.4189 100.424 97.4984 100.411 97.571C100.171 98.7239 100.028 103.109 100.028 103.109C100.01 104.146 99.9775 105.174 99.9519 106.211C99.9305 106.695 99.9524 107.588 100.379 108.584C100.862 109.71 101.606 110.391 101.988 110.699C102.522 110.754 104.157 110.846 105.014 109.813C105.258 109.514 105.401 109.171 105.556 107.482C105.76 105.237 105.874 104.111 105.578 102.941C105.266 101.688 105.023 100.705 104.139 100.109C102.554 99.0487 100.333 100.209 100.164 100.299" stroke="#F6BDA1" stroke-width="2" stroke-miterlimit="10"/>
<path d="M176.113 135.349C179.137 134.898 181.389 133.19 181.142 131.534C180.895 129.877 178.243 128.9 175.218 129.35C172.194 129.801 169.943 131.51 170.19 133.166C170.436 134.823 173.088 135.8 176.113 135.349Z" fill="#F69F9F"/>
<path d="M176.633 141.797C180.439 141.23 183.099 137.912 182.573 134.386C182.048 130.86 178.536 128.462 174.729 129.029C170.923 129.597 168.263 132.915 168.789 136.441C169.314 139.966 172.826 142.365 176.633 141.797Z" fill="#F69F9F"/>
<path d="M156.442 107.553C158.664 107.699 160.634 105.253 160.843 102.089C161.052 98.9241 159.42 96.2399 157.199 96.0933C154.977 95.9467 153.007 98.3931 152.798 101.558C152.589 104.722 154.221 107.406 156.442 107.553Z" fill="#090606"/>
<path d="M153.826 100.099C153.294 100.133 152.397 100.11 151.381 99.7181C149.957 99.1629 149.131 98.1958 148.796 97.7438" stroke="#231F20" stroke-width="2" stroke-miterlimit="10"/>
<path d="M203.062 108.026C205.288 108.037 207.105 105.474 207.12 102.303C207.135 99.1318 205.342 96.5525 203.116 96.542C200.889 96.5316 199.072 99.0939 199.058 102.265C199.043 105.437 200.835 108.016 203.062 108.026Z" fill="#090606"/>
<path d="M206.172 100.773C206.697 100.842 207.599 100.887 208.639 100.567C210.101 100.116 210.987 99.2027 211.357 98.7811" stroke="#231F20" stroke-width="2" stroke-miterlimit="10"/>
<path d="M116.611 141.94C116.611 141.94 125.794 163.079 125.931 180.223C126.068 197.367 136.055 192.979 136.055 192.979C136.055 192.979 126.989 209.806 114.041 207.383C114.592 208.19 115.685 209.531 117.505 210.513C120.691 212.223 123.815 211.594 124.693 211.38C123.422 212.323 99.8106 229.399 80.1051 219.935C77.5673 218.715 71.6389 215.468 67.7499 209.06C60.6663 197.399 65.3136 183.94 65.3136 183.94C65.5003 183.608 66.4579 181.823 65.7824 180.809C65.0403 179.7 62.3836 179.583 59.5175 181.387C59.9932 170.85 62.6123 164.057 65.087 159.698C66.2394 157.671 68.7421 153.727 67.7857 149.267C67.2224 146.648 65.6573 144.727 64.3584 143.482C62.7852 142.658 61.2114 141.841 59.6382 141.017C59.6382 141.017 81.3336 132.465 80.4085 124.62C79.4834 116.776 94.1619 116.426 94.1619 116.426L116.611 141.94Z" fill="url(#paint2_radial)"/>
<path d="M138.282 149.437C136.955 149.95 135.068 150.575 132.739 151.005C132.739 151.005 131.059 151.315 129.201 151.449C121.464 152.014 115.095 150.243 115.095 150.243C105.579 147.605 99.6985 141.542 97.4942 139.206C93.3647 134.841 90.8679 130.303 89.35 126.759C85.5085 120.899 78.3204 108.17 77.3103 90.5931C77.1891 88.4635 76.5045 74.1281 82.3184 59.6362C96.5682 24.1177 139.211 14.195 143.477 13.2684C168.224 8.03574 183.01 12.2664 192.132 17.6141C197.805 20.9377 209.825 29.5864 217.027 25.5209C219.771 23.9728 220.352 21.2181 221.509 21.6946C224.088 22.7628 216.475 33.3288 216.475 33.3288C216.475 33.3288 218.215 34.8795 221.183 40.6081C222.921 43.9553 229.706 55.5789 233.246 72.9029C234.659 79.8264 236.691 90.2124 235.126 103.71C234.393 109.995 233.086 115.177 231.964 118.871C229.994 125.351 226.475 129.691 225.59 130.803C221.723 135.669 217.422 138.552 214.602 140.131C215.731 138.904 217.259 137.082 218.786 134.67C221.264 130.761 222.757 126.829 224.271 120.632C225.859 114.138 227.383 107.912 227.55 99.3466C227.808 85.906 224.554 74.9283 221.726 67.8184C221.908 74.6649 218.951 79.4663 215.739 79.8824C215.181 79.9586 213.645 80.0209 211.572 78.2982C211.572 78.2982 217.103 73.2394 212.973 66.6068C212.973 66.6068 219.018 82.0263 201.434 76.7921C201.434 76.7921 208.255 74.6862 202.849 61.9504C202.849 61.9504 209.493 81.3905 196.278 79.4931C183.063 77.5957 189.988 68.9445 189.988 68.9445C189.988 68.9445 195.916 62.5016 188.501 54.9028C181.085 47.3039 176.751 44.2052 176.751 44.2052L174.799 42.4399C174.799 42.4399 184.693 73.3067 164.451 78.9485C164.173 79.0235 163.88 79.0974 163.588 79.1714C163.588 79.1714 157.584 81.8829 153.468 80.1995C152.253 79.704 156.455 66.977 154.093 66.5654C154.093 66.5654 156.785 79.4599 146.511 79.7844L142.611 79.5601L140.633 78.728L142.44 66.5294C141.047 65.8514 147.053 79.6259 137.011 80.3948L131.606 80.3088C131.606 80.3088 133.917 73.1104 131.574 69.2691C131.574 69.2691 132.733 75.3637 129.165 81.3492C127.313 84.4584 124.841 84.5393 122.281 88.067C119.827 91.4553 119.22 94.856 118.776 97.3559C117.319 105.553 119.851 112.479 121.336 115.778C119.621 114.685 117.198 112.804 115.472 109.782C113.095 105.621 114.052 102.85 112.739 97.9371C111.571 93.5573 108.051 85.4535 103.32 85.1085C98.4503 84.7531 93.2214 92.6766 92.3855 99.8449C91.7914 104.955 93.4932 109.094 94.5463 111.168C95.9636 113.196 98.258 115.804 101.778 117.472C104.368 118.696 104.954 118.143 106.59 119.208C110.565 121.786 109.205 126.412 112.49 132.127C114.256 135.204 116.49 136.946 121.038 140.341C123.904 142.483 128.096 145.233 133.648 147.701C127.272 144.619 124.097 143.057 124.124 143C124.16 142.915 128.873 145.07 138.282 149.437Z" fill="url(#paint3_radial)"/>
<path d="M182.472 268.109L181.967 269.455L176.253 284.669L166.249 281.487L173.496 261.388L182.472 268.109Z" fill="#F2B49D"/>
<path d="M167.825 277.12C174.876 280.531 177.394 280.822 177.999 280.013C178.155 279.804 178.193 279.483 178.2 279.49C178.229 279.5 174.791 289.081 174.791 289.081C173.556 291.036 171.344 292.057 169.276 291.645C166.621 291.116 165.578 288.513 165.479 288.262C165.238 287.633 165.003 286.644 165.553 283.901C165.892 282.218 166.525 279.85 167.825 277.12Z" fill="#DFDFDF"/>
<path d="M174.612 288.81C176.277 290.488 176.529 293.032 175.33 294.798C174.363 296.213 172.585 296.95 170.77 296.697C170.298 296.713 166.803 296.784 164.756 294.202C161.776 290.431 164.748 284.622 165.467 284.668C166.001 284.708 165.471 287.967 167.615 289.629C168.527 290.337 169.583 290.49 170.251 290.525C170.635 290.612 171.153 290.673 171.748 290.585C173.386 290.346 174.359 289.152 174.612 288.81Z" fill="#030303"/>
<path d="M160.354 266.321L159.87 267.581L154.441 281.844L145.058 278.811L151.954 259.967L160.354 266.321Z" fill="#F2B49D"/>
<path d="M146.556 274.718C153.162 277.957 155.527 278.236 156.099 277.476C156.246 277.281 156.283 276.982 156.29 276.982C156.319 276.992 153.044 285.974 153.044 285.974C151.876 287.809 149.796 288.751 147.852 288.356C145.357 287.846 144.391 285.396 144.305 285.161C144.084 284.57 143.866 283.641 144.397 281.067C144.727 279.501 145.327 277.278 146.556 274.718Z" fill="#DFDFDF"/>
<path d="M152.885 285.726C154.439 287.307 154.666 289.702 153.526 291.355C152.61 292.686 150.939 293.364 149.243 293.113C148.8 293.124 145.52 293.174 143.61 290.742C140.826 287.192 143.647 281.747 144.32 281.797C144.818 281.834 144.311 284.889 146.314 286.466C147.17 287.134 148.16 287.281 148.783 287.32C149.138 287.398 149.627 287.464 150.192 287.381C151.725 287.164 152.641 286.047 152.885 285.726Z" fill="#030303"/>
<path d="M106.445 177.1C106.445 177.1 94.796 191.445 99.8554 200.922C101.626 204.235 104.95 205.778 104.95 205.778C107.45 207.01 112.527 208.338 114.485 205.671C115.82 203.864 115.349 200.699 113.424 197.979C113.713 197.949 114.509 197.839 115.162 197.188C115.448 196.9 115.798 196.558 115.718 196.235C115.559 195.612 113.843 195.323 112.394 195.686C112.109 195.76 112.129 195.784 111.829 195.865C110.619 196.194 108.921 196.252 108.447 195.797C105.645 193.077 115.732 178.955 115.732 178.955L106.445 177.1Z" fill="#FCF6CA"/>
<path d="M205.55 162.599C205.55 162.599 225.858 157.153 232.414 152.473C238.97 147.785 237.902 146.012 237.902 146.012C237.902 146.012 236.814 141.94 240.348 144.015C243.883 146.089 243.76 148.525 243.76 148.525C243.76 148.525 256.221 147.796 253.657 155.432C251.086 163.067 241.593 163.192 241.593 163.192L240.186 163.493L213.715 172.993L205.55 162.599Z" fill="#FCF6CA"/>
<path d="M170.531 159.637C171.174 159.405 172.466 158.964 174.119 158.527C189.499 154.489 205.441 159.417 205.441 159.417C204.943 156.715 205.873 154.413 207.511 153.674C207.64 153.617 208.713 153.152 209.652 153.597C211.259 154.358 211.881 157.475 210.795 161.281C211.453 160.947 215.711 158.85 218.527 160.679C218.857 160.895 219.412 161.26 219.592 161.907C219.996 163.299 218.495 165.264 215.735 166.833C215.735 166.833 221.845 166.846 219.566 170.66C219.414 170.914 219.047 171.696 218.034 172.534C217.493 172.987 215.423 174.57 212.724 174.428C212.724 174.428 212.541 174.422 209.524 173.807C209.12 175.176 207.859 178.756 204.309 181.444C199.993 184.716 195.174 184.475 193.234 184.22C190.543 183.872 188.503 182.881 187.318 182.189C206.127 206.158 219.82 223.686 220.987 225.223C221.953 226.495 222.655 227.836 222.701 227.913C222.714 227.936 223.031 228.623 223.519 229.682C225.425 233.852 227.502 237.003 228.569 241.567C229.076 243.747 229.424 245.209 229.153 247.162C228.123 254.67 219.283 260.358 219.276 260.358C219.276 260.358 210.105 265.351 202.829 261.121C202.829 261.121 192.995 281.932 171.054 266.095C171.054 266.095 156.449 283.26 137.616 262.375C130.986 268.743 122.154 270.272 116.622 266.745C111.456 263.452 110.198 256.408 110.017 255.378C109.363 251.714 109.915 248.648 110.396 246.836C115.952 230.668 121.401 220.876 125.457 214.853C126.633 213.107 130.604 207.343 136.294 198.666C138.952 194.616 141.1 191.278 142.492 189.099C141.681 188.619 140.955 188.19 140.946 188.211C140.93 188.232 142.159 188.824 142.078 189.127C141.906 189.755 136.209 188.83 136.195 188.829L136.18 188.828C121.857 186.48 120.96 185.773 119.165 184.365L119.144 184.349C119.12 184.377 121.783 186.983 121.783 186.983L119.353 184.512C119.353 184.512 114.775 188.633 111.965 186.03C109.162 183.429 110.234 181.697 110.234 181.697C109.811 182.137 108.832 183.021 107.344 183.315C107.128 183.358 104.045 183.924 103.031 182.11C102.355 180.904 102.967 179.315 103.606 178.545C104.221 177.803 105.369 177.211 105.577 177.197C105.577 177.197 105.591 177.199 105.592 177.191C105.604 177.126 103.145 177.127 102.012 175.827C101.306 175.024 101.068 173.666 101.575 172.894C102.098 172.093 103.572 171.688 103.549 171.693C104.734 171.406 105.912 171.118 107.096 170.831C107.845 170.769 108.942 170.77 110.222 171.071C111.539 171.383 112.546 171.907 113.193 172.309C113.193 172.309 110.966 157.431 140.447 153.98C148.129 152.277 151.9 153.544 153.928 155.08C154.514 155.521 155.215 156.192 156.662 157.124C158.355 158.222 160.652 159.704 163.804 160.196C165.097 160.425 167.521 160.613 170.531 159.637Z" fill="#522158"/>
<path opacity="0.8" d="M185.08 156.98C186.072 165.698 187.065 174.417 188.057 183.135C197.061 194.725 204.156 203.559 208.512 208.942C218.916 221.785 224.427 228.167 223.248 236.282C223.083 237.418 222.056 242.407 218.292 246.375C212.995 251.952 205.792 252.182 205.792 252.182C205.792 252.182 199.362 251.209 197.103 247.433C194.844 243.657 191.272 222.914 191.272 222.914L198.104 250.909C198.104 250.909 198.401 253.545 196.7 256.011C194.991 258.497 192.416 259.255 190.715 259.747C186.555 260.932 183.038 259.808 181.961 259.448C178.118 258.161 175.489 255.587 175.571 255.475C175.613 255.412 176.623 255.98 180.633 258.591C180.073 258.505 176.795 257.93 174.882 254.938C173.781 253.214 173.651 251.503 173.646 250.678C172.974 242.396 172.303 234.114 171.638 225.833C171.638 225.833 177.565 249.372 170.319 254.318C163.081 259.264 148.399 264.599 143.813 250.046C139.228 235.494 147.18 223.429 147.18 223.429C147.18 223.429 144.895 255.686 128.588 254.972C125.895 254.853 122.416 254.107 119.689 251.961C113.366 246.998 113.839 238.374 113.907 237.356C117.456 228.269 121.3 221.443 124.246 216.788C126.249 213.616 127.495 212.008 130.417 207.675C134.961 200.938 138.821 194.687 142.063 189.134C141.774 170.763 141.747 157.191 142.04 155.431C142.107 155.031 142.269 154.034 143.008 153.603C143.277 153.447 143.514 153.435 144.507 153.347C146.367 153.191 146.072 153.191 146.412 153.18C147.276 153.148 148.604 153.115 150.24 153.487C150.732 153.597 151.418 153.788 152.211 154.105C150.458 163.406 149.642 170.709 149.448 174.7C149.331 177.055 149.357 179.774 150.368 182.905C150.632 183.712 151.031 184.78 151.336 185.333C154.277 190.632 172.719 192.043 178.012 184.257C183.411 176.324 175.204 158.778 178.018 157.676C178.337 157.553 179.666 157.299 180.94 157.195C181.289 157.162 181.51 157.156 183.129 157.07C183.963 157.044 184.636 157.006 185.08 156.98Z" fill="white"/>
<path d="M101.461 139.236C105.212 139.39 108.277 139.95 110.499 140.476C115.91 141.77 117.107 143.096 117.65 144.109C117.838 144.454 118.488 145.71 118.132 147.23C117.655 149.278 115.716 150.201 115.419 150.334C115.521 150.547 116.631 152.942 115.415 154.744C114.47 156.153 112.714 156.31 111.424 156.42C107.77 156.744 104.839 154.869 103.556 153.905C100.148 152.407 97.984 149.138 98.0776 145.706C98.1782 141.885 101.031 139.572 101.461 139.236Z" fill="url(#paint4_radial)"/>
<path d="M99.5299 147.957C99.5299 147.957 100.808 153.825 97.4955 172.7C94.1825 191.576 107.293 193.001 92.8616 215.142L91.6726 219.044C92.0133 217.634 92.1743 216.461 92.2625 215.672C92.505 213.503 92.8235 210.611 91.6169 210.006C91.503 209.953 91.4038 209.902 91.2703 209.914C90.2844 210.002 90.5601 213.123 88.9584 214.955C88.4029 215.591 87.3427 216.381 85.1908 216.603C85.1908 216.603 91.8374 200.62 89.9729 194.612C88.1083 188.605 86.9474 186.199 86.3682 169.361C85.7964 152.523 98.4729 140.795 98.4729 140.795L99.5299 147.957Z" fill="url(#paint5_radial)"/>
<path d="M97.0659 145.153C97.0659 145.153 85.5995 148.245 78.6497 161.084C71.6998 173.923 72.2485 179.803 72.2485 179.803L70.1284 169.911C70.1284 169.911 64.6439 172.072 65.479 175.492C66.314 178.912 59.2334 163.85 73.5153 154.789C87.7971 145.729 94.2376 143.484 94.2376 143.484L101.397 137.42L97.0659 145.153Z" fill="url(#paint6_radial)"/>
<path d="M97.8243 136.454L94.1506 144.258C94.1506 144.258 82.0613 143.159 82.6869 138.714C83.3125 134.269 85.9637 132.581 85.9637 132.581C85.9637 132.581 80.7145 127.235 88.2588 124.506C95.7963 121.768 97.8243 136.454 97.8243 136.454Z" fill="url(#paint7_radial)"/>
<path d="M95.2591 138.767C93.1878 141.565 92.9751 144.914 94.7754 146.248C96.5831 147.583 99.7193 146.403 101.791 143.605C103.862 140.806 104.075 137.457 102.274 136.123C100.474 134.789 97.3304 135.968 95.2591 138.767Z" fill="url(#paint8_radial)"/>
<defs>
<linearGradient id="paint0_linear" x1="152.352" y1="143.228" x2="288.815" y2="146.289" gradientUnits="userSpaceOnUse">
<stop stop-color="#F6DBCD"/>
<stop offset="0.3967" stop-color="#F6F6D0"/>
<stop offset="0.7376" stop-color="#E9F3E5"/>
<stop offset="0.8282" stop-color="#EAF4E8"/>
<stop offset="1" stop-color="#F1EEF6"/>
</linearGradient>
<linearGradient id="paint1_linear" x1="164.798" y1="139.9" x2="24.4287" y2="173.499" gradientUnits="userSpaceOnUse">
<stop stop-color="#F6DBCD"/>
<stop offset="0.3967" stop-color="#F6F6D0"/>
<stop offset="0.7376" stop-color="#E9F3E5"/>
<stop offset="0.8282" stop-color="#EAF4E8"/>
<stop offset="1" stop-color="#F1EEF6"/>
</linearGradient>
<radialGradient id="paint2_radial" cx="0" cy="0" r="1" gradientUnits="userSpaceOnUse" gradientTransform="translate(95.1684 169.481) rotate(171.522) scale(45.5985)">
<stop stop-color="#FCCA70"/>
<stop offset="0.9021" stop-color="#F4AB9E"/>
</radialGradient>
<radialGradient id="paint3_radial" cx="0" cy="0" r="1" gradientUnits="userSpaceOnUse" gradientTransform="translate(108.167 18.4579) rotate(171.522) scale(199.391)">
<stop stop-color="#FCCA70"/>
<stop offset="0.9021" stop-color="#F4AB9E"/>
</radialGradient>
<radialGradient id="paint4_radial" cx="0" cy="0" r="1" gradientUnits="userSpaceOnUse" gradientTransform="translate(108.366 147.548) rotate(171.522) scale(9.63719)">
<stop stop-color="#FBEFED"/>
<stop offset="1" stop-color="#DB3757"/>
</radialGradient>
<radialGradient id="paint5_radial" cx="0" cy="0" r="1" gradientUnits="userSpaceOnUse" gradientTransform="translate(92.0971 180.35) rotate(171.522) scale(28.3416)">
<stop stop-color="#FBEFED"/>
<stop offset="1" stop-color="#DB3757"/>
</radialGradient>
<radialGradient id="paint6_radial" cx="0" cy="0" r="1" gradientUnits="userSpaceOnUse" gradientTransform="translate(83.617 159.07) rotate(171.522) scale(19.8291)">
<stop stop-color="#FBEFED"/>
<stop offset="1" stop-color="#DB3757"/>
</radialGradient>
<radialGradient id="paint7_radial" cx="0" cy="0" r="1" gradientUnits="userSpaceOnUse" gradientTransform="translate(89.7711 134.517) rotate(171.522) scale(9.07331)">
<stop stop-color="#FBEFED"/>
<stop offset="1" stop-color="#DB3757"/>
</radialGradient>
<radialGradient id="paint8_radial" cx="0" cy="0" r="1" gradientUnits="userSpaceOnUse" gradientTransform="translate(98.5486 141.168) rotate(171.522) scale(5.30103)">
<stop stop-color="#DB3757"/>
<stop offset="1" stop-color="#DB3757" stop-opacity="0.5"/>
</radialGradient>
</defs>
</svg>
